<svg xmlns="http://www.w3.org/2000/svg" xmlns:svg="http://www.w3.org/2000/svg" id="svg7384" width="16" height="16" version="1.1"><metadata id="metadata90"/><title id="title9167">Gnome Symbolic Icon Theme</title><path id="path952" d="M 2,2 C 0.892,2 0,2.892 0,4 v 8 c 0,1.108 0.892,2 2,2 H 7 V 12 H 2 V 4 h 12 v 2 h 2 V 4 C 16,2.892 15.108,2 14,2 Z" style="display:inline;opacity:1;vector-effect:none;fill:#241f31;fill-opacity:1;stroke:none;stroke-width:1;stroke-linecap:square;stroke-linejoin:round;stroke-miterlimit:4;stroke-dasharray:none;stroke-dashoffset:0;stroke-opacity:1;enable-background:new"/><path style="display:inline;fill:#241f31;fill-opacity:1;stroke:none;stroke-width:1.99999952;enable-background:new" id="path6305-7" d="M 11,6 C 8.83336,6 6.98018,6.73878 6,8 v 1 h 2 c 0.78878,-0.60652 1.7588701,-1 3,-1 1.24113,0 2.21938,0.39348 3,1 h 2 V 8 C 15.00522,6.7771 13.1266,6 11,6 Z m 0,3 C 9.7426701,9 8.78429,9.31165 8,10 v 1 H 11 11.375 14 V 10 C 13.1631,9.32794 12.25733,9 11,9 Z m 0,3 c -1.1045699,0 -2,0.89543 -2,2 0,1.10457 0.8954301,2 2,2 1.10457,0 2,-0.89543 2,-2 0,-1.10457 -0.89543,-2 -2,-2 z" clip-path="none"/></svg>