<svg xmlns="http://www.w3.org/2000/svg" xmlns:svg="http://www.w3.org/2000/svg" xmlns:xlink="http://www.w3.org/1999/xlink" id="svg11300" width="128" height="128" enable-background="new" version="1.0" viewBox="0 0 128 128" style="display:inline;enable-background:new"><title id="title4162">Adwaita Icon Template</title><defs id="defs3"><linearGradient id="linearGradient1246"><stop style="stop-color:#c0bfbc;stop-opacity:1" id="stop1242" offset="0"/><stop style="stop-color:#77767b;stop-opacity:1" id="stop1244" offset="1"/></linearGradient><linearGradient id="linearGradient1008"><stop style="stop-color:#dc8add;stop-opacity:1" id="stop1004" offset="0"/><stop style="stop-color:#1c71d8;stop-opacity:1" id="stop1006" offset="1"/></linearGradient><linearGradient id="linearGradient4887"><stop style="stop-color:#a347ba;stop-opacity:1" id="stop4883" offset="0"/><stop style="stop-color:#c061cb;stop-opacity:.12598425" id="stop4885" offset="1"/></linearGradient><radialGradient id="radialGradient1020" cx="340.172" cy="275.124" r="225" fx="340.172" fy="275.124" gradientTransform="matrix(0.28412699,0,0,0.58637858,-6.586177,131.736)" gradientUnits="userSpaceOnUse" xlink:href="#linearGradient4887"/><radialGradient id="radialGradient1018" cx="100.274" cy="-60.348" r="225" fx="100.274" fy="-60.348" gradientTransform="matrix(0.24888885,0,0,0.37442716,5.4518574,248.7292)" gradientUnits="userSpaceOnUse" xlink:href="#linearGradient1008"/><linearGradient id="linearGradient1064" x1="88.596" x2="536.596" y1="-449.394" y2="-449.394" gradientTransform="matrix(0.25,0,0,0.25,-14.14897,400.34849)" gradientUnits="userSpaceOnUse" xlink:href="#linearGradient1078"/><linearGradient id="linearGradient1078"><stop id="stop1066" offset="0" style="stop-color:#77767b;stop-opacity:1"/><stop style="stop-color:#c0bfbc;stop-opacity:1" id="stop1068" offset=".036"/><stop id="stop1070" offset=".071" style="stop-color:#9a9996;stop-opacity:1"/><stop style="stop-color:#9a9996;stop-opacity:1" id="stop1072" offset=".929"/><stop id="stop1074" offset=".964" style="stop-color:#c0bfbc;stop-opacity:1"/><stop id="stop1076" offset="1" style="stop-color:#77767b;stop-opacity:1"/></linearGradient><linearGradient id="linearGradient3723"><stop id="stop3719" offset="0" style="stop-color:#f6f5f4;stop-opacity:1"/><stop id="stop3721" offset="1" style="stop-color:#deddda;stop-opacity:1"/></linearGradient><linearGradient id="linearGradient1192" x1="42" x2="42" y1="290" y2="274" gradientTransform="translate(10,-1.4e-5)" gradientUnits="userSpaceOnUse" xlink:href="#linearGradient1246"/><linearGradient id="linearGradient1194" x1="66" x2="66" y1="284" y2="288" gradientTransform="translate(20,3.999986)" gradientUnits="userSpaceOnUse" xlink:href="#linearGradient3723"/></defs><metadata id="metadata4"/><g id="layer1" transform="translate(0,-172)" style="display:inline"><g id="layer9" style="display:inline"><rect style="opacity:1;vector-effect:none;fill:#1a5fb4;fill-opacity:1;stroke:none;stroke-width:2;stroke-linecap:round;stroke-linejoin:round;stroke-miterlimit:4;stroke-dasharray:none;stroke-dashoffset:0;stroke-opacity:1" id="rect4725" width="0" height="0" x="0" y="0" transform="translate(0,172)"/><g id="g1198" transform="translate(-9.9999962)"><rect id="rect1188" width="60" height="28" x="44" y="264" style="display:inline;opacity:1;fill:url(#linearGradient1192);fill-opacity:1;stroke:none;stroke-width:.25;stroke-linecap:butt;stroke-linejoin:miter;stroke-miterlimit:4;stroke-dasharray:none;stroke-dashoffset:0;stroke-opacity:1;marker:none;marker-start:none;marker-mid:none;marker-end:none;paint-order:normal;enable-background:new"/><path id="path1190" d="m 42,287.99998 h 64.0625 c 1.9375,0 3.9375,2 3.9375,4 H 38 c 0,-2 2,-4 4,-4 z" style="display:inline;opacity:1;fill:url(#linearGradient1194);fill-opacity:1;stroke:none;stroke-width:4.99999952;stroke-linecap:square;stroke-linejoin:miter;stroke-miterlimit:4;stroke-dasharray:none;stroke-dashoffset:0;stroke-opacity:1;enable-background:new"/></g><g id="g1240" transform="translate(0,-16)"><rect style="display:inline;opacity:1;vector-effect:none;fill:url(#linearGradient1064);fill-opacity:1;stroke:none;stroke-width:.25;stroke-linecap:butt;stroke-linejoin:miter;stroke-miterlimit:4;stroke-dasharray:none;stroke-dashoffset:0;stroke-opacity:1;marker:none;marker-start:none;marker-mid:none;marker-end:none;paint-order:normal;enable-background:new" id="rect1048" width="112" height="76" x="8" y="212" rx="8" ry="8"/><rect id="rect929-36-9" width="112" height="84" x="8" y="200" rx="8" ry="8" style="display:inline;opacity:1;vector-effect:none;fill:#deddda;fill-opacity:1;stroke:none;stroke-width:.25;stroke-linecap:butt;stroke-linejoin:miter;stroke-miterlimit:4;stroke-dasharray:none;stroke-dashoffset:0;stroke-opacity:1;marker:none;marker-start:none;marker-mid:none;marker-end:none;paint-order:normal;enable-background:new"/><rect id="rect946-0-7" width="104" height="76" x="12" y="204" rx="4" ry="4" style="display:inline;opacity:1;vector-effect:none;fill:#241f31;fill-opacity:1;stroke:none;stroke-width:.01129821px;stroke-linecap:butt;stroke-linejoin:miter;stroke-miterlimit:4;stroke-dasharray:none;stroke-dashoffset:0;stroke-opacity:1;marker:none;marker-start:none;marker-mid:none;marker-end:none;paint-order:normal;enable-background:new"/><rect style="display:inline;opacity:1;vector-effect:none;fill:url(#radialGradient1018);fill-opacity:1;stroke:none;stroke-width:.50000006;stroke-linecap:butt;stroke-linejoin:bevel;stroke-miterlimit:4;stroke-dasharray:.49999998,1.00000001;stroke-dashoffset:0;stroke-opacity:.94881891;marker:none;marker-start:none;marker-mid:none;marker-end:none;paint-order:normal;enable-background:new" id="rect1012" width="96" height="68" x="16" y="208"/><rect id="rect1014" width="96" height="68" x="16" y="208" style="display:inline;opacity:.753;vector-effect:none;fill:url(#radialGradient1020);fill-opacity:1;stroke:none;stroke-width:.50000006;stroke-linecap:butt;stroke-linejoin:bevel;stroke-miterlimit:4;stroke-dasharray:.49999998,1.00000001;stroke-dashoffset:0;stroke-opacity:.94881891;marker:none;marker-start:none;marker-mid:none;marker-end:none;paint-order:normal;enable-background:new"/><g id="g6295" transform="matrix(3,0,0,3,-170.0006,-1249)" style="display:inline;enable-background:new"><rect style="color:#bebebe;display:inline;overflow:visible;visibility:visible;fill:none;stroke:none;stroke-width:1;marker:none" id="rect6303" width="16" height="16" x="-505" y="70" clip-path="none" transform="rotate(-90)"/><path id="path6305" d="m 69.5,52.5 c -5.62844,0 -10.34346,2.000735 -14,5.171875 V 60.5 h 2.960938 c 3.038559,-2.52932 6.439222,-4 11.039062,-4 4.59984,0 8.000503,1.55906 11.039062,4 H 83.5 V 57.738281 C 80.21912,54.806781 75.12844,52.5 69.5,52.5 Z m 0,6 c -4.33328,0 -8.03964,1.47756 -10,4 v 2 h 4 c 1.57756,-1.21304 3.51774,-2 6,-2 2.48226,0 4.43876,0.78696 6,2 h 4 v -2 c -1.98956,-2.4458 -5.7468,-4 -10,-4 z m 0,6 c -2.51466,0 -4.43142,0.6233 -6,2 v 2 h 6 0.75 5.25 v -2 c -1.6738,-1.34412 -3.48534,-2 -6,-2 z m 0,6 a 3.999999,3.999999 0 0 0 -4,4 3.999999,3.999999 0 0 0 4,4 3.999999,3.999999 0 0 0 4,-4 3.999999,3.999999 0 0 0 -4,-4 z" clip-path="none" transform="matrix(0.5,0,0,0.5,43.250202,464.75)" style="display:inline;fill:#fff;fill-opacity:1;stroke:none;stroke-width:3.99999905"/></g></g></g></g></svg>